Coordinates
version=1
nRows=4
nColumns=114
inDegrees=yes

Units are S.I. units (second, meters, Newtons, ...)
If the header above contains a line with 'inDegrees', this indicates whether rotational values are in degrees (yes) or radians (no).

endheader 
time	pelvis_tilt	pelvis_list	pelvis_rotation	pelvis_tx	pelvis_ty	pelvis_tz	hip_flexion_l	hip_adduction_l	hip_rotation_l	hip_flexion_r	hip_adduction_r	hip_rotation_r	knee_angle_l	knee_angle_r	ankle_angle_l	ankle_angle_r	subtalar_angle_l	subtalar_angle_r	mtp_angle_l	mtp_angle_r	lumbar_extension	lumbar_bending	lumbar_rotation	arm_flex_l	arm_add_l	arm_rot_l	arm_flex_r	arm_add_r	arm_rot_r	elbow_flex_l	elbow_flex_r	pro_sup_l	pro_sup_r	addbrev_l/activation	addlong_l/activation	addmagDist_l/activation	addmagIsch_l/activation	addmagMid_l/activation	addmagProx_l/activation	bflh_l/activation	bfsh_l/activation	edl_l/activation	ehl_l/activation	fdl_l/activation	fhl_l/activation	gaslat_l/activation	gasmed_l/activation	glmax1_l/activation	glmax2_l/activation	glmax3_l/activation	glmed1_l/activation	glmed2_l/activation	glmed3_l/activation	glmin1_l/activation	glmin2_l/activation	glmin3_l/activation	grac_l/activation	iliacus_l/activation	perbrev_l/activation	perlong_l/activation	piri_l/activation	psoas_l/activation	recfem_l/activation	sart_l/activation	semimem_l/activation	semiten_l/activation	soleus_l/activation	tfl_l/activation	tibant_l/activation	tibpost_l/activation	vasint_l/activation	vaslat_l/activation	vasmed_l/activation	addbrev_r/activation	addlong_r/activation	addmagDist_r/activation	addmagIsch_r/activation	addmagMid_r/activation	addmagProx_r/activation	bflh_r/activation	bfsh_r/activation	edl_r/activation	ehl_r/activation	fdl_r/activation	fhl_r/activation	gaslat_r/activation	gasmed_r/activation	glmax1_r/activation	glmax2_r/activation	glmax3_r/activation	glmed1_r/activation	glmed2_r/activation	glmed3_r/activation	glmin1_r/activation	glmin2_r/activation	glmin3_r/activation	grac_r/activation	iliacus_r/activation	perbrev_r/activation	perlong_r/activation	piri_r/activation	psoas_r/activation	recfem_r/activation	sart_r/activation	semimem_r/activation	semiten_r/activation	soleus_r/activation	tfl_r/activation	tibant_r/activation	tibpost_r/activation	vasint_r/activation	vaslat_r/activation	vasmed_r/activation	
          1.63000000	        -25.92175028	        -16.67756415	        -51.28124694	          1.28177842	          0.82742906	          0.27307074	         47.41431367	        -27.32584351	          8.43811466	         57.21134458	         -7.78268386	        -21.50716247	         70.13930828	        134.90054099	         37.08658397	          7.04753663	         -4.57586303	        -23.80587244	         -9.00678241	          0.04656694	        -31.04784286	         17.13539576	         15.44977203	         12.27891425	        -12.87118628	          6.90930726	          0.55897420	        -20.15727839	          7.61924272	         44.75779923	         37.04334088	         75.97878869	         55.50042058	          0.01836965	          0.01325828	          0.14935388	          0.23556612	          0.03716732	          0.01693789	          0.01320624	          0.01501878	          0.01896378	          0.02291754	          0.19040914	          0.33253763	          0.03824434	          0.01690461	          0.42234496	          0.52385637	          0.17175055	          0.39530501	          0.38247298	          0.42742346	          0.13739555	          0.10728148	          0.09959397	          0.01522452	          0.01609747	          0.01259949	          0.01146373	          0.07831729	          0.01262076	          0.18377520	          0.01486356	          0.01144512	          0.01490089	          0.52196846	          0.12736004	          0.04018317	          0.65041032	          0.30180151	          0.99939216	          0.77518085	          0.01027649	          0.01016689	          0.01029530	          0.01034627	          0.01029385	          0.01086913	          0.16489638	          0.31491451	          0.08772444	          0.05036856	          0.03179228	          0.02473305	          0.17714610	          0.23432198	          0.01083063	          0.01066801	          0.01033666	          0.01024187	          0.01091224	          0.01415023	          0.01049896	          0.01100924	          0.01428260	          0.01071685	          0.01447717	          0.07410500	          0.11481867	          0.99756047	          0.51623773	          0.01048773	          0.99945243	          0.01025210	          0.01037558	          0.01387696	          0.39249995	          0.03202413	          0.01690055	          0.01019826	          0.01006086	          0.01012467	
          1.64000000	        -26.78437269	        -17.06501529	        -51.60113891	          1.28066892	          0.82891810	          0.27291813	         48.01836685	        -28.29638490	          9.02653358	         57.15105215	         -7.56761207	        -22.93359220	         69.87682403	        134.00185222	         36.82598697	          5.85224473	         -4.26497239	        -25.83875645	         -9.39717070	          0.05128063	        -31.46624514	         17.80235426	         15.98492948	         12.01118931	        -12.80511254	          6.58486606	          0.40944214	        -20.27626290	          7.34052908	         45.07895401	         37.02657923	         75.89527013	         55.75874341	          0.02500842	          0.01652615	          0.14306029	          0.26314092	          0.05013471	          0.01841870	          0.01238327	          0.01411484	          0.01778654	          0.02200344	          0.20488230	          0.34541745	          0.03219787	          0.01528283	          0.37896936	          0.44351487	          0.14787271	          0.33265155	          0.32416880	          0.36421441	          0.12756326	          0.10008960	          0.12362669	          0.01521429	          0.01704979	          0.01262849	          0.01163478	          0.07016965	          0.01308043	          0.15344252	          0.01401719	          0.01092709	          0.01397795	          0.43506229	          0.13752164	          0.03540474	          0.68658303	          0.25153085	          0.99839540	          0.64605966	          0.01028655	          0.01017095	          0.01030374	          0.01035391	          0.01030674	          0.01094582	          0.25230201	          0.37663641	          0.08975730	          0.05157260	          0.03166641	          0.02446787	          0.18034560	          0.24351728	          0.01071891	          0.01057185	          0.01033589	          0.01023548	          0.01087201	          0.01364355	          0.01048105	          0.01094562	          0.01381388	          0.01073360	          0.01452439	          0.07500221	          0.11128114	          0.99746687	          0.61050388	          0.01045409	          0.99945734	          0.01026555	          0.01039654	          0.01324058	          0.36634823	          0.03355263	          0.01684226	          0.01020308	          0.01006331	          0.01012781	
          1.65000000	        -27.67894094	        -17.48997315	        -51.92773242	          1.27957160	          0.83114191	          0.27263792	         48.54277122	        -29.24545702	          9.69547496	         57.00715263	         -7.30886751	        -24.40734341	         69.45321024	        132.93028529	         36.63193990	          4.65526787	         -4.02067005	        -27.87730201	         -9.51597142	          0.05796986	        -31.95605713	         18.50247699	         16.59174256	         11.85528912	        -12.67505315	          6.25020007	          0.37787536	        -20.47266182	          7.04005383	         45.32575265	         36.95566086	         75.82747419	         56.19065341	          0.03742948	          0.02013266	          0.15381278	          0.36396834	          0.07342800	          0.02113211	          0.01227723	          0.01327302	          0.01899213	          0.02848821	          0.21953442	          0.36247378	          0.02734567	          0.01293470	          0.34902336	          0.40149359	          0.14365548	          0.27805831	          0.27151460	          0.30558621	          0.11058829	          0.08959216	          0.14693390	          0.01534439	          0.01575383	          0.01222169	          0.01111015	          0.06386395	          0.01279722	          0.12803615	          0.01303695	          0.01073196	          0.01376714	          0.36260984	          0.14685754	          0.03695586	          0.72346924	          0.23236010	          0.89412288	          0.54432762	          0.01029759	          0.01017460	          0.01031485	          0.01036155	          0.01032286	          0.01105987	          0.33997999	          0.43754406	          0.09075011	          0.05269460	          0.03246600	          0.02498303	          0.18234333	          0.24789746	          0.01062724	          0.01049560	          0.01033840	          0.01022463	          0.01081915	          0.01322611	          0.01045620	          0.01086873	          0.01338459	          0.01075680	          0.01423203	          0.07340422	          0.10694644	          0.99746583	          0.66177959	          0.01044995	          0.99945313	          0.01028109	          0.01042281	          0.01298300	          0.32926012	          0.03657119	          0.01729767	          0.01021112	          0.01006689	          0.01013306	
          1.66000000	        -28.59414271	        -17.94807574	        -52.23291172	          1.27849230	          0.83395900	          0.27216353	         48.97788916	        -30.12792413	         10.46567824	         56.80742510	         -7.02128007	        -25.90748134	         68.86629062	        131.73028163	         36.53658168	          3.50112964	         -3.85963760	        -29.90598609	         -9.35885287	          0.07086101	        -32.52760121	         19.23839083	         17.25722088	         11.83292440	        -12.50522883	          5.88951813	          0.46767362	        -20.71201142	          6.72626192	         45.55454177	         36.83974655	         75.71702831	         56.69026398	          0.03467652	          0.01790546	          0.13026424	          0.39256945	          0.06392553	          0.02423893	          0.01391475	          0.01219799	          0.01805469	          0.02958060	          0.24123722	          0.38053325	          0.02876182	          0.01566352	          0.29401625	          0.36212359	          0.13283683	          0.23207647	          0.22677897	          0.25535441	          0.09381580	          0.07780813	          0.16798984	          0.01488747	          0.01379435	          0.01241722	          0.01176448	          0.05965830	          0.01172716	          0.10680616	          0.01186818	          0.10064797	          0.01375395	          0.30220150	          0.14472722	          0.03242334	          0.77556079	          0.19364945	          0.74513722	          0.45362711	          0.01031334	          0.01018152	          0.01033488	          0.01037846	          0.01034593	          0.01119672	          0.37395720	          0.49574094	          0.09003688	          0.05437313	          0.03308633	          0.02532357	          0.18543944	          0.24280435	          0.01059554	          0.01047469	          0.01035300	          0.01022640	          0.01082810	          0.01315228	          0.01045269	          0.01084881	          0.01324066	          0.01081454	          0.01358114	          0.07094516	          0.10049523	          0.99749321	          0.68757932	          0.01040012	          0.99943280	          0.01033123	          0.01047842	          0.01263584	          0.28614414	          0.04121274	          0.01788213	          0.01021915	          0.01007053	          0.01013842	
